<svg height="1000" width="1600" xmlns="http://www.w3.org/2000/svg"><linearGradient id="a" x1="1.444%" x2="100%" y1="30.469%" y2="69.531%"><stop offset="0" stop-color="#17ead9"/><stop offset="1" stop-color="#6078ea"/></linearGradient><g fill="none" fill-rule="evenodd"><path d="M0 0h1600v1000H0z" fill="url(#a)"/><g fill="#fff"><path d="M522 230h982v101H519v-98a3 3 0 013-3z" opacity=".299"/><path d="M519 331h985v559a4 4 0 01-4 4H519z" opacity=".097"/><g fill-opacity=".3" fill-rule="nonzero" transform="matrix(-1 0 0 1 1222 462)"><path d="M292 96.494h-45.898c-4.488-31.934-6.953-49.345-7.395-52.233l-44.622 6.217C185.816 21.87 180.992 5.214 179.61.51 64.624 32.997 4.754 49.956 0 51.387l52.596 181.957 22.46-5.551 6.341 31.376 22.728-3.767V287H292zM52.72 177.789L19.978 63.362l147.79-42.335 9.18 31.905L52.72 70.545l14.687 103.256zm35.8 24.848l-16.524-117.8 152.381-21.475 4.59 33.132H103.819V200.49zm186.039 29.757H120.954V113.366h153.91v119.028z"/><path d="M143.484 215H250.51c2.752 0 7.398-.05 5.563-2.194l-30.98-42.46c-1.223-1.838-1.337-1.532-2.866 0L208.792 181.5l-28.042-31.73c-1.529-2.145-1.489-2.145-2.712 0l-38.712 63.036c-1.223 2.144 1.406 2.194 4.158 2.194z"/><circle cx="232" cy="144" r="13"/></g></g></g></svg>